<?xml version="1.0" encoding="UTF-8" standalone="no"?>
<svg
   width="750.09125"
   height="750.09125"
   viewBox="0 0 480.0584 480.0584"
   version="1.1"
   id="svg2"
   xmlns="http://www.w3.org/2000/svg"
   xmlns:svg="http://www.w3.org/2000/svg">
  <defs
     id="defs2" />
  <g
     id="g2"
     style="fill:#ffffff;fill-opacity:1"
     transform="rotate(32.70835,275.22701,220.80217)">
    <path
       fill="var(--ci-primary-color, #000000)"
       d="M 256,16 C 123.452,16 16,123.452 16,256 16,388.548 123.452,496 256,496 388.548,496 496,388.548 496,256 496,123.452 388.548,16 256,16 Z m 147.078,387.078 a 207.253,207.253 0 1 1 44.589,-66.125 207.332,207.332 0 0 1 -44.589,66.125 z"
       class="ci-primary"
       id="path1"
       style="fill:#ffffff;fill-opacity:1" />
    <rect
       width="176"
       height="32"
       x="168"
       y="320"
       fill="var(--ci-primary-color, #000000)"
       class="ci-primary"
       id="rect1"
       style="fill:#ffffff;fill-opacity:1" />
    <polygon
       fill="var(--ci-primary-color, #000000)"
       points="117.37,187.958 141.412,209.329 120.042,233.37 143.958,254.63 165.329,230.588 189.37,251.958 210.63,228.042 186.588,206.671 207.958,182.63 184.042,161.37 162.671,185.412 138.63,164.042 "
       class="ci-primary"
       id="polygon1"
       style="fill:#ffffff;fill-opacity:1" />
    <polygon
       fill="var(--ci-primary-color, #000000)"
       points="296.042,233.37 319.958,254.63 341.329,230.588 365.37,251.958 386.63,228.042 362.588,206.671 383.958,182.63 360.042,161.37 338.671,185.412 314.63,164.042 293.37,187.958 317.412,209.329 "
       class="ci-primary"
       id="polygon2"
       style="fill:#ffffff;fill-opacity:1" />
  </g>
</svg>
