<?xml version="1.0" encoding="UTF-8" standalone="no"?>

<svg
   fill="#000000"
   width="628.81482"
   height="429.15176"
   viewBox="0 0 25.152593 17.166071"
   id="icon"
   version="1.1"
   xmlns="http://www.w3.org/2000/svg"
   xmlns:svg="http://www.w3.org/2000/svg">
  <defs
     id="defs1">
    <style
       id="style1">.cls-1{fill:none;}</style>
  </defs>
  <title
     id="title1">number--small--4</title>
  <polygon
     points="15,11 13,11 13,17 17,17 17,21 19,21 19,11 17,11 17,15 15,15 "
     id="polygon1"
     transform="translate(-13,-3.8865975)" />
  <path
     d="M 15.706811,8.0593778 C 15.064152,7.3483218 14.43108,6.749877 14.020588,6.379153 14.631904,6.182509 14.952787,5.626444 14.738402,5.115382 14.669652,4.951553 14.552677,4.808389 14.39924,4.695134 14.752757,4.43258 14.902518,4.015036 14.738402,3.623768 14.668712,3.457719 14.5493,3.313063 14.392782,3.19908 14.751019,2.936849 14.903612,2.51648 14.738402,2.12275 14.631408,1.867582 14.408429,1.661616 14.110694,1.542669 13.981397,1.491009 13.844749,1.458559 13.705815,1.445399 V 0.30271399 C 13.705815,0.13553499 13.539066,-1.0861205e-8 13.333274,-1.0861205e-8 13.127482,-1.0861205e-8 12.960732,0.13553499 12.960732,0.30271399 V 1.549008 L 11.747488,1.885101 V 0.30271399 C 11.747488,0.13553499 11.580739,-1.0861205e-8 11.374946,-1.0861205e-8 11.169155,-1.0861205e-8 11.002405,0.13553499 11.002405,0.30271399 V 2.091512 l -0.25765,0.07136 c -0.313978,0.08698 -0.567555,0.268124 -0.71384,0.510053 -0.1463336,0.241929 -0.1679406,0.515664 -0.06089,0.77079 0.06964,0.166009 0.1890026,0.310626 0.3454206,0.424567 -0.116482,0.08504 -0.213393,0.187966 -0.284573,0.305661 -0.1463336,0.241929 -0.1679416,0.515663 -0.0609,0.770791 0.07004,0.166937 0.1893996,0.308768 0.3397576,0.419683 -0.113849,0.08423 -0.208872,0.185463 -0.27886,0.30114 -0.1463336,0.241929 -0.1679416,0.515663 -0.0609,0.770791 0.1067956,0.254643 0.3290786,0.460206 0.6258696,0.579273 -0.357739,0.3481218 -0.6957576,0.6976958 -1.0082956,1.0437588 -1.493843,1.652819 -2.251294,3.0572512 -2.251294,4.1743062 0,2.719745 2.382478,4.932384 5.3109046,4.932384 2.928127,0 5.310358,-2.212639 5.310358,-4.932384 5e-5,-1.116894 -0.757204,-2.5213262 -2.250699,-4.1743062 z M 13.116405,6.63093 v 2.4977548 c 0,0.210204 -0.210461,0.381218 -0.469701,0.381218 -0.258693,0 -0.469104,-0.171014 -0.469104,-0.381218 V 6.891022 Z m -1.577838,2.9003248 c 0.189947,0.343883 0.61514,0.5841162 1.108634,0.5841162 0.493643,0 0.919085,-0.2407182 1.108784,-0.5851662 0.997964,1.1451072 1.558416,2.1101602 1.558416,2.7034792 0,1.535447 -1.196504,2.784607 -2.66715,2.784607 -1.470944,0 -2.6676966,-1.24916 -2.6676966,-2.784607 -5e-5,-0.591665 0.5606506,-1.556394 1.5590126,-2.7024292 z M 13.723201,5.823208 11.305902,6.492852 c -0.125671,0.03475 -0.260432,0.02777 -0.379546,-0.01982 -0.119064,-0.04759 -0.208275,-0.129965 -0.251142,-0.232081 -0.04282,-0.102075 -0.03417,-0.211577 0.02434,-0.308365 0.05851,-0.09679 0.159994,-0.169237 0.285565,-0.204069 l 2.449088,-0.677274 c 0.04257,-0.0093 0.08588,-0.01417 0.129098,-0.01417 0.07495,0 0.149513,0.01396 0.218707,0.04161 0.119064,0.04759 0.208275,0.130006 0.251143,0.232081 0.08842,0.210689 -0.05062,0.44059 -0.309955,0.512434 z M 10.675263,4.74934 c -0.04282,-0.102075 -0.03417,-0.211577 0.02434,-0.308365 0.05851,-0.09679 0.159994,-0.169237 0.285565,-0.204069 l 2.417349,-0.669645 c 0.05266,-0.01457 0.106796,-0.02179 0.160789,-0.02179 0.07495,0 0.149514,0.01396 0.218707,0.04161 0.119065,0.04759 0.208275,0.129965 0.251143,0.23204 0.08837,0.210729 -0.05067,0.440631 -0.309955,0.512475 l -2.44293,0.675577 c -0.251937,0.05784 -0.519521,-0.054 -0.605008,-0.257832 z m 0.02434,-1.809383 c 0.05857,-0.09679 0.159994,-0.169237 0.285565,-0.20407 l 2.417349,-0.669644 c 0.05266,-0.01457 0.106796,-0.0218 0.160789,-0.0218 0.07495,0 0.149514,0.01396 0.218707,0.04161 0.119065,0.04759 0.208275,0.130006 0.251143,0.232081 0.08837,0.210729 -0.05067,0.440631 -0.309955,0.512434 l -2.417299,0.669644 c -0.125671,0.03479 -0.260431,0.02777 -0.379545,-0.01982 -0.119114,-0.04754 -0.208276,-0.129965 -0.251143,-0.232081 -0.04287,-0.102115 -0.03412,-0.211576 0.02439,-0.308364 z m 1.947598,13.620682 c -2.517637,0 -4.5658206,-1.941043 -4.5658206,-4.326955 0,-0.985355 0.708823,-2.2692252 2.1068466,-3.8160142 0.373635,-0.413709 0.800965,-0.848851 1.24424,-1.267726 v 1.478778 C 9.5234144,10.652709 9.2344214,11.754589 9.2344214,12.233644 c 0,1.86928 1.5309476,3.390035 3.4127796,3.390035 1.881534,0 3.412234,-1.520755 3.412234,-3.390035 0,-0.480347 -0.288993,-1.584002 -2.197996,-3.6063752 v -1.477487 c 0.360223,0.340493 0.802951,0.779065 1.244786,1.267888 1.397627,1.546869 2.106251,2.8307402 2.106251,3.8159742 0,2.385912 -2.047936,4.326995 -4.565275,4.326995 z"
     id="path1"
     style="stroke-width:0.0447757" />
  <polygon
     points="17,11 17,15 15,15 15,11 13,11 13,17 17,17 17,21 19,21 19,11 "
     id="polygon1-1"
     transform="translate(6.1525924,-4.1128343)" />
  <g
     id="g2"
     transform="matrix(0.01018728,0.00578748,-0.00584752,0.01109451,11.521996,7.8862338)">
    <path
       fill="var(--ci-primary-color, #000000)"
       d="M 256,16 C 123.452,16 16,123.452 16,256 16,388.548 123.452,496 256,496 388.548,496 496,388.548 496,256 496,123.452 388.548,16 256,16 Z m 147.078,387.078 a 207.253,207.253 0 1 1 44.589,-66.125 207.332,207.332 0 0 1 -44.589,66.125 z"
       class="ci-primary"
       id="path1-7" />
    <rect
       width="176"
       height="32"
       x="168"
       y="320"
       fill="var(--ci-primary-color, #000000)"
       class="ci-primary"
       id="rect1" />
    <polygon
       fill="var(--ci-primary-color, #000000)"
       points="117.37,187.958 141.412,209.329 120.042,233.37 143.958,254.63 165.329,230.588 189.37,251.958 210.63,228.042 186.588,206.671 207.958,182.63 184.042,161.37 162.671,185.412 138.63,164.042 "
       class="ci-primary"
       id="polygon1-4" />
    <polygon
       fill="var(--ci-primary-color, #000000)"
       points="296.042,233.37 319.958,254.63 341.329,230.588 365.37,251.958 386.63,228.042 362.588,206.671 383.958,182.63 360.042,161.37 338.671,185.412 314.63,164.042 293.37,187.958 317.412,209.329 "
       class="ci-primary"
       id="polygon2" />
  </g>
</svg>
