<?xml version="1.0" encoding="UTF-8" standalone="no"?>

<svg
   fill="#000000"
   height="800"
   width="681.04688"
   version="1.1"
   id="Layer_1"
   viewBox="0 0 435.87 512"
   xml:space="preserve"
   sodipodi:docname="gallows-gibbet-svgrepo-com.svg"
   inkscape:export-filename="..\Desktop\hangman\hangman_alive.svg"
   inkscape:export-xdpi="96"
   inkscape:export-ydpi="96"
   xmlns:inkscape="http://www.inkscape.org/namespaces/inkscape"
   xmlns:sodipodi="http://sodipodi.sourceforge.net/DTD/sodipodi-0.dtd"
   xmlns="http://www.w3.org/2000/svg"
   xmlns:svg="http://www.w3.org/2000/svg"><defs
   id="defs2"><inkscape:path-effect
     effect="bspline"
     id="path-effect67"
     is_visible="true"
     lpeversion="1.3"
     weight="33.333333"
     steps="2"
     helper_size="0"
     apply_no_weight="true"
     apply_with_weight="true"
     only_selected="false"
     uniform="false" /><inkscape:path-effect
     effect="bspline"
     id="path-effect66"
     is_visible="true"
     lpeversion="1.3"
     weight="33.333333"
     steps="2"
     helper_size="0"
     apply_no_weight="true"
     apply_with_weight="true"
     only_selected="false"
     uniform="false" /><inkscape:path-effect
     effect="bspline"
     id="path-effect65"
     is_visible="true"
     lpeversion="1.3"
     weight="33.333333"
     steps="2"
     helper_size="0"
     apply_no_weight="true"
     apply_with_weight="true"
     only_selected="false"
     uniform="false" /><inkscape:path-effect
     effect="bspline"
     id="path-effect64"
     is_visible="true"
     lpeversion="1.3"
     weight="33.333333"
     steps="2"
     helper_size="0"
     apply_no_weight="true"
     apply_with_weight="true"
     only_selected="false"
     uniform="false" /><inkscape:path-effect
     effect="bspline"
     id="path-effect62"
     is_visible="true"
     lpeversion="1.3"
     weight="33.333333"
     steps="2"
     helper_size="0"
     apply_no_weight="true"
     apply_with_weight="true"
     only_selected="false"
     uniform="false" /></defs><sodipodi:namedview
   id="namedview2"
   pagecolor="#ffffff"
   bordercolor="#000000"
   borderopacity="0.25"
   inkscape:showpageshadow="2"
   inkscape:pageopacity="0.0"
   inkscape:pagecheckerboard="0"
   inkscape:deskcolor="#d1d1d1"
   showgrid="false" />

<g
   id="g2"
   transform="translate(-38.064999)">
	<g
   id="g1">
		<path
   id="path1"
   d="m 100.24125,0 c -5.21183,0 -9.435,4.2241768 -9.435,9.435 V 25.16 H 54.9575 c -5.21183,0 -9.435,4.22417 -9.435,9.435 V 93.72 c 0,5.21083 4.22317,9.435 9.435,9.435 H 90.81 V 493.13 H 47.5 c -5.21183,0 -9.435,4.22434 -9.435,9.435 0,5.21066 4.22317,9.435 9.435,9.435 h 417 c 5.21166,0 9.435,-4.22434 9.435,-9.435 0,-5.21066 -4.22284,-9.435 -9.4325,-9.435 H 168.805 V 221.1625 L 286.80125,103.155 H 383.92 v 14.075 c 1.86263,0.92811 3.87833,1.57674 5.8325,2.26375 4.28367,1.41504 8.65784,2.53285 13.03375,3.62375 v -19.96 h 34.595 c 5.21166,0 9.435,-4.22417 9.435,-9.435 V 34.595 c 0,-5.21083 -4.22334,-9.435 -9.435,-9.435 h -268.58 V 9.435 c 0,-5.2108232 -4.22334,-9.435 -9.435,-9.435 z M 109.68,18.87 h 40.255 V 493.13 H 109.68 Z M 64.3925,44.02875 H 90.81 V 84.285 H 64.3925 Z m 104.4125,0 H 427.95 V 84.285 H 168.805 Z m 0,59.12625 h 37.54625 L 168.805,140.7075 Z m 64.22875,0 h 27.0825 l -91.31125,91.32 v -27.08 z M 418.165,251.2625 c -0.0371,0.002 -0.0742,0.005 -0.11125,0.008 l 0.17,0.17 c -0.0201,-0.059 -0.039,-0.11843 -0.0587,-0.1775 z m -2.74375,76.30875 c -0.0919,0.12364 -0.18691,0.24503 -0.27875,0.36875 0.0948,-0.0403 0.19443,-0.0685 0.28875,-0.11 -0.003,-0.0863 -0.007,-0.17249 -0.01,-0.25875 z" />
	</g>
</g><path
   style="opacity:1;fill:#cccccc;fill-opacity:0;fill-rule:evenodd;stroke:#000000;stroke-width:8.9088;stroke-dasharray:none;stroke-opacity:1;paint-order:markers fill stroke"
   d="m 395.77539,285.05615 c 0,0 36.7025,56.27718 36.7025,56.27718"
   id="path66"
   inkscape:path-effect="#path-effect67"
   inkscape:original-d="m 395.77539,285.05615 36.7025,56.27718"
   transform="matrix(-0.31933049,-0.90229431,1.1239896,-0.39779056,31.79395,809.07215)" /><path
   style="opacity:1;fill:#cccccc;fill-opacity:0;fill-rule:evenodd;stroke:#000000;stroke-width:8.9088;stroke-dasharray:none;stroke-opacity:1;paint-order:markers fill stroke"
   d="m 394.55197,269.15173 c 0,0 -33.03226,77.68698 -33.03226,77.68698"
   id="path65"
   inkscape:path-effect="#path-effect66"
   inkscape:original-d="m 394.55197,269.15173 -33.03226,77.68698"
   transform="rotate(119.45445,290.64066,254.44199)" /><path
   style="opacity:1;fill:#cccccc;fill-opacity:0;fill-rule:evenodd;stroke:#000000;stroke-width:8.9088;stroke-dasharray:none;stroke-opacity:1;paint-order:markers fill stroke"
   d="m 396.9988,336.43967 c 0,0 39.14935,105.82557 39.14935,105.82557"
   id="path64"
   inkscape:path-effect="#path-effect65"
   inkscape:original-d="m 396.9988,336.43967 39.14935,105.82557"
   transform="matrix(1.0408923,0,0,0.99903347,-188.46549,59.739696)" /><path
   style="opacity:1;fill:#cccccc;fill-opacity:0;fill-rule:evenodd;stroke:#000000;stroke-width:8.9088;stroke-dasharray:none;stroke-opacity:1;paint-order:markers fill stroke"
   d="m 393.94026,341.94504 c 0,0 -40.37276,100.3202 -40.37276,100.3202"
   id="path63"
   inkscape:path-effect="#path-effect64"
   inkscape:original-d="M 393.94026,341.94504 353.5675,442.26524"
   transform="translate(-169.21563,54.172854)" /><path
   style="opacity:1;fill:#cccccc;fill-opacity:0;fill-rule:evenodd;stroke:#000000;stroke-width:8.9088;stroke-dasharray:none;stroke-opacity:1;paint-order:markers fill stroke"
   d="m 395.77539,241.62485 c 0,0 -1.22342,104.60215 -1.22342,104.60215"
   id="path61"
   inkscape:path-effect="#path-effect62"
   inkscape:original-d="M 395.77539,241.62485 394.55197,346.227"
   transform="translate(-169.64817,54.172854)" /><path
   d="m 270.993,250.78624 c 0,23.9095 -19.38215,43.29165 -43.29165,43.29165 -23.9093,0 -43.29165,-19.38215 -43.29165,-43.29165 0,-23.90931 19.38235,-43.29165 43.29165,-43.29165 23.9095,0 43.29165,19.38234 43.29165,43.29165 z"
   stroke="#000000"
   stroke-width="9.62037"
   stroke-linecap="round"
   stroke-linejoin="round"
   id="path1-8"
   style="fill:#cccccc;fill-opacity:0;stroke:#000000;stroke-opacity:1" /><path
   style="fill:#cccccc;fill-opacity:0;fill-rule:evenodd;stroke:#000000;stroke-width:6.47127;stroke-dasharray:none;stroke-opacity:1;paint-order:markers fill stroke"
   id="path76-2"
   sodipodi:type="arc"
   sodipodi:cx="240.37668"
   sodipodi:cy="238.06586"
   sodipodi:rx="1.5246201"
   sodipodi:ry="3.5126715"
   sodipodi:start="0"
   sodipodi:end="6.2791229"
   sodipodi:open="true"
   sodipodi:arc-type="arc"
   d="m 241.9013,238.06586 a 1.5246201,3.5126715 0 0 1 -1.52307,3.51267 1.5246201,3.5126715 0 0 1 -1.52617,-3.50554 1.5246201,3.5126715 0 0 1 1.51997,-3.51979 1.5246201,3.5126715 0 0 1 1.52926,3.49839" /><path
   id="path1-2"
   d="m 345.82189,98.149215 v 41.177505 l -10.5325,3.51125 c -4.944,1.648 -7.61425,6.991 -5.96625,11.935 1.179,3.534 4.246,5.89125 7.705,6.35625 l -1.73875,0.58 c -4.944,1.648 -7.6155,6.991 -5.9675,11.935 1.179,3.534 4.246,5.89125 7.705,6.35625 l -1.73875,0.57875 c -4.944,1.648 -7.6155,6.991 -5.9675,11.935 1.172,3.517 4.2185,5.87475 7.6575,6.35375 l -20.55875,20.55875 c -21.41128,21.41228 -21.41128,56.25647 0,77.66875 10.37264,10.37264 24.16636,16.08625 38.835,16.08625 14.67064,0 28.46211,-5.71261 38.83375,-16.08625 10.37464,-10.37264 16.08625,-24.16536 16.08625,-38.835 0,-14.67064 -5.71236,-28.46236 -16.085,-38.835 l -28.91625,-28.91625 10.04625,-3.35 c 4.944,-1.648 7.6155,-6.991 5.9675,-11.935 -1.177,-3.531 -4.241,-5.89175 -7.695,-6.35875 l 1.7275,-0.57625 c 4.944,-1.648 7.6155,-6.991 5.9675,-11.935 -1.177,-3.531 -4.241,-5.89175 -7.695,-6.35875 l 1.7275,-0.57625 c 4.944,-1.648 7.6155,-6.991 5.9675,-11.935 -1.649,-4.944 -6.991,-7.6155 -11.935,-5.9675 l -4.56375,1.52125 V 98.721715 c -0.80334,-0.0776 -1.60725,-0.15228 -2.40875,-0.24875 -2.01667,-0.12153 -4.03307,-0.32675 -6.05375,-0.32375 -2.57392,-1e-5 -5.14733,2e-5 -7.72125,0 -0.89419,-1e-5 -1.78834,-2e-5 -2.6825,0 z m 9.43375,109.125005 25.49375,25.49125 c 6.80864,6.80864 10.56,15.86286 10.56,25.4925 0,9.62964 -3.75061,18.68161 -10.56125,25.49125 -6.80764,6.80864 -15.86186,10.56 -25.4925,10.56 -9.62833,0 -18.68268,-3.75077 -25.49125,-10.56 -14.05664,-14.05664 -14.05664,-36.92711 0,-50.98375 z" /><path
   style="opacity:1;fill:#cccccc;fill-opacity:0;fill-rule:evenodd;stroke:#000000;stroke-width:6.47127;stroke-dasharray:none;stroke-opacity:1;paint-order:markers fill stroke"
   id="path76"
   sodipodi:type="arc"
   sodipodi:cx="212.12376"
   sodipodi:cy="237.49583"
   sodipodi:rx="1.5246201"
   sodipodi:ry="3.5126715"
   sodipodi:start="0"
   sodipodi:end="6.2791229"
   sodipodi:open="true"
   sodipodi:arc-type="arc"
   d="m 213.64838,237.49583 a 1.5246201,3.5126715 0 0 1 -1.52307,3.51267 1.5246201,3.5126715 0 0 1 -1.52616,-3.50553 1.5246201,3.5126715 0 0 1 1.51997,-3.51979 1.5246201,3.5126715 0 0 1 1.52925,3.49838" /><g
   id="Page-1"
   stroke="none"
   stroke-width="1"
   fill="none"
   fill-rule="evenodd"
   transform="matrix(4.5805586,0,0,4.2906548,181.97116,209.56255)"><g
     id="Dribbble-Light-Preview"
     transform="translate(-380,-5759)"
     fill="#000000"><g
       id="icons"
       transform="translate(56,160)"><path
         id="emoji_happy_circle-[#550]"
         d="m 330.09004,5610.4104 c -0.608,0 -1.09895,0.336 -0.99395,0.934 0.962,5.478 8.84596,5.582 9.80796,0.104 0.105,-0.598 -0.38599,-1.038 -0.99399,-1.038 z" /></g></g></g></svg>
