<?xml version="1.0" encoding="UTF-8" standalone="no"?>
<svg
   width="749.99976"
   height="749.99976"
   viewBox="0 0 479.99984 479.99984"
   version="1.1"
   id="svg2"
   xmlns="http://www.w3.org/2000/svg"
   xmlns:svg="http://www.w3.org/2000/svg">
  <defs
     id="defs2" />
  <path
     fill="var(--ci-primary-color, #000000)"
     d="M 411.62984,72.240655 C 318.97919,-22.547691 167.029,-24.280647 72.240654,68.370001 -22.547692,161.02065 -24.280648,312.97084 68.370002,407.75918 c 92.650648,94.78835 244.600838,96.5213 339.389178,3.87066 94.78835,-92.65065 96.5213,-244.60084 3.87066,-339.389185 z M 237.62788,447.9861 a 207.253,207.253 0 1 1 78.4552,-14.33448 207.332,207.332 0 0 1 -78.4552,14.33448 z"
     class="ci-primary"
     id="path1" />
  <rect
     width="176"
     height="32"
     x="244.77521"
     y="130.78761"
     fill="var(--ci-primary-color, #000000)"
     class="ci-primary"
     id="rect1"
     transform="rotate(33.651568)" />
  <polygon
     fill="var(--ci-primary-color, #000000)"
     points="138.63,164.042 117.37,187.958 141.412,209.329 120.042,233.37 143.958,254.63 165.329,230.588 189.37,251.958 210.63,228.042 186.588,206.671 207.958,182.63 184.042,161.37 162.671,185.412 "
     class="ci-primary"
     id="polygon1"
     transform="rotate(33.651568,274.45434,221.54558)" />
  <polygon
     fill="var(--ci-primary-color, #000000)"
     points="317.412,209.329 296.042,233.37 319.958,254.63 341.329,230.588 365.37,251.958 386.63,228.042 362.588,206.671 383.958,182.63 360.042,161.37 338.671,185.412 314.63,164.042 293.37,187.958 "
     class="ci-primary"
     id="polygon2"
     transform="rotate(33.651568,274.45434,221.54558)" />
</svg>
